<svg id="Layer_1_1_" enable-background="new 0 0 96 96" height="512" viewBox="0 0 96 96" width="512" xmlns="http://www.w3.org/2000/svg"><path d="m46.792 64.5c-1.564.332-3.177.5-4.792.5-12.682 0-23-10.318-23-23s10.318-23 23-23 23 10.318 23 23c0 7.382-3.583 14.367-9.584 18.684-.448.323-.55.948-.228 1.396.323.448.947.549 1.396.228 6.522-4.692 10.416-12.284 10.416-20.308 0-13.785-11.215-25-25-25s-25 11.215-25 25 11.215 25 25 25c1.754 0 3.506-.183 5.208-.543.54-.115.885-.646.771-1.186s-.645-.886-1.187-.771z"/><path d="m57.781 29.375c-.345-.431-.975-.501-1.405-.156l-13.652 10.921c-.225-.088-.468-.14-.724-.14-.407 0-.784.123-1.1.332l-12.453-6.226c-.495-.248-1.095-.047-1.342.447s-.047 1.095.447 1.342l12.46 6.23c.066 1.045.926 1.875 1.988 1.875 1.105 0 2-.895 2-2 0-.101-.015-.198-.03-.296l13.654-10.923c.432-.345.502-.974.157-1.406z"/><circle cx="42" cy="56" r="1"/><circle cx="46" cy="56" r="1"/><circle cx="38" cy="56" r="1"/><path d="m62 48v-6c0-.552-.448-1-1-1h-10c-.552 0-1 .448-1 1v6c0 .552.448 1 1 1h10c.552 0 1-.448 1-1zm-7-1h-3v-4h3zm5 0h-3v-4h3z"/><path d="m93 64h-8c-.552 0-1 .448-1 1v1h-2.586l-1.707-1.707c-.187-.188-.442-.293-.707-.293-1.654 0-3-1.346-3-3v-6c0-2.757-2.243-5-5-5-.039 0-.074.01-.112.011.724-2.611 1.112-5.295 1.112-8.011 0-16.542-13.458-30-30-30s-30 13.458-30 30 13.458 30 30 30c2.923 0 5.81-.447 8.607-1.285.284.497.655.93 1.1 1.285-.627.502-1.118 1.158-1.406 1.923-.87.231-1.696.425-2.486.567-.411.074-.733.396-.807.808l-.803 4.477c-.682.076-1.376.133-2.077.172l-1.433-4.264c-.136-.405-.513-.678-.94-.682-2.413-.019-4.832-.307-7.19-.855-.41-.096-.839.078-1.068.433l-2.447 3.806c-.328-.098-.656-.2-.983-.308-.328-.108-.652-.222-.974-.339l.306-4.515c.029-.421-.211-.815-.599-.984-2.224-.968-4.337-2.179-6.282-3.601-.345-.252-.81-.257-1.161-.014l-3.693 2.568c-.539-.449-1.062-.909-1.564-1.377l2.025-4.072c.186-.375.12-.825-.167-1.13-1.6-1.705-3.037-3.616-4.271-5.681-.22-.368-.652-.557-1.071-.464l-4.376.952c-.338-.656-.659-1.325-.959-2l3.447-3.009c.312-.272.423-.708.281-1.097-.788-2.156-1.352-4.392-1.676-6.646-.061-.427-.389-.766-.813-.842l-4.396-.788c-.063-.79-.103-1.582-.117-2.37l4.358-1.465c.389-.131.659-.486.68-.896.112-2.165.445-4.337.988-6.458.107-.417-.065-.856-.428-1.089l-3.768-2.422c.028-.09.056-.181.086-.271.225-.679.488-1.392.799-2.163l4.601.311c.406.028.791-.195.968-.564.898-1.865 1.973-3.647 3.195-5.296.255-.345.262-.814.017-1.166l-2.56-3.68c.589-.697 1.213-1.382 1.864-2.047l4.13 2.054c.365.182.804.123 1.11-.148 1.466-1.303 3.05-2.479 4.709-3.495.363-.222.545-.65.455-1.065l-.957-4.4c.859-.453 1.75-.879 2.663-1.273l3.026 3.467c.269.309.7.422 1.086.285 1.779-.628 3.61-1.105 5.441-1.418.415-.071.742-.395.816-.81l.799-4.458c.991-.102 2.007-.164 3.036-.187l1.46 4.344c.131.392.49.662.902.681 1.846.084 3.679.32 5.448.703.412.088.828-.086 1.053-.437l2.463-3.832c.532.15 1.021.299 1.483.452s.945.326 1.461.521l-.308 4.545c-.028.416.205.806.584.978 1.647.748 3.26 1.65 4.793 2.685.341.23.791.228 1.13-.008l3.763-2.616c.812.632 1.591 1.288 2.326 1.961l-2.017 4.056c-.188.377-.119.832.173 1.136 1.283 1.343 2.468 2.818 3.522 4.384.228.339.64.508 1.042.419l4.497-.978c.498.862.959 1.735 1.379 2.61l-3.393 2.961c-.32.28-.429.732-.27 1.126.726 1.804 1.296 3.692 1.696 5.614.083.399.401.708.803.781l4.541.814c.126.923.218 1.845.275 2.755l-4.249 1.429c-.403.134-.678.515-.678.944-.003 2.052-.203 4.123-.594 6.156-.077.401.097.809.441 1.03l3.879 2.494c-.21.805-.424 1.534-.648 2.212-.074.222-.154.44-.235.659l-.117.32c-.187.52.082 1.093.602 1.28.521.185 1.093-.082 1.28-.602l.112-.307c.088-.239.176-.479.257-.723.304-.917.587-1.916.867-3.054.102-.415-.071-.849-.43-1.08l-3.921-2.521c.293-1.703.461-3.427.5-5.143l4.296-1.444c.421-.142.699-.545.68-.99-.061-1.455-.208-2.945-.438-4.429-.065-.422-.392-.756-.812-.831l-4.592-.823c-.359-1.575-.827-3.126-1.395-4.626l3.43-2.994c.333-.291.436-.765.252-1.167-.626-1.378-1.354-2.758-2.163-4.102-.221-.366-.649-.553-1.069-.461l-4.547.989c-.881-1.257-1.843-2.455-2.868-3.573l2.04-4.101c.195-.393.112-.866-.205-1.168-1.112-1.062-2.329-2.089-3.616-3.053-.345-.258-.816-.266-1.17-.021l-3.805 2.645c-1.254-.811-2.554-1.54-3.88-2.175l.311-4.593c.029-.433-.224-.836-.628-.997-.816-.325-1.552-.595-2.25-.826-.695-.23-1.447-.452-2.298-.679-.422-.114-.863.06-1.099.425l-2.49 3.873c-1.444-.281-2.922-.472-4.412-.568l-1.476-4.392c-.137-.408-.519-.682-.948-.682-.001 0-.003 0-.004 0-1.61.007-3.199.105-4.724.294-.436.056-.785.386-.863.818l-.808 4.508c-1.49.286-2.976.674-4.433 1.157l-3.06-3.505c-.281-.322-.736-.431-1.134-.267-1.449.596-2.856 1.27-4.182 2.003-.387.214-.587.656-.493 1.087l.967 4.449c-1.352.866-2.652 1.833-3.879 2.882l-4.177-2.078c-.384-.191-.843-.116-1.147.183-1.07 1.054-2.078 2.163-2.994 3.294-.28.346-.298.835-.044 1.2l2.588 3.721c-.993 1.401-1.887 2.885-2.667 4.427l-4.65-.314c-.419-.026-.824.217-.989.61-.454 1.08-.822 2.05-1.125 2.968-.081.244-.153.488-.225.733l-.093.313c-.129.427.042.888.417 1.13l3.799 2.442c-.422 1.801-.701 3.634-.833 5.465l-4.407 1.481c-.406.138-.681.519-.681.948-.002 1.339.065 2.697.201 4.039.045.444.379.805.819.884l4.443.797c.318 1.923.8 3.829 1.437 5.683l-3.485 3.042c-.325.284-.432.745-.264 1.143.502 1.188 1.067 2.366 1.68 3.498.211.392.658.596 1.092.501l4.422-.961c1.095 1.751 2.329 3.393 3.681 4.894l-2.048 4.118c-.194.39-.113.86.199 1.163.877.851 1.823 1.684 2.812 2.475.345.277.833.293 1.196.041l3.733-2.596c1.709 1.195 3.533 2.24 5.437 3.115l-.309 4.562c-.03.438.23.844.64 1.001.577.221 1.159.433 1.751.628.592.196 1.186.373 1.78.54.422.118.874-.053 1.111-.422l2.473-3.846c2.048.433 4.135.682 6.222.741l1.449 4.311c.137.409.52.682.947.682h.037c1.267-.047 2.522-.151 3.732-.311.432-.057.777-.386.854-.815l.812-4.528c.393-.08.792-.17 1.201-.27.149 1.19.757 2.229 1.65 2.943-1.03.824-1.705 2.078-1.705 3.499s.675 2.675 1.706 3.5c-1.031.825-1.706 2.079-1.706 3.5 0 2.481 2.019 4.5 4.5 4.5h26.5c.155 0 .309-.036.447-.105l2.553-1.277v.382c0 .552.448 1 1 1h8c.552 0 1-.448 1-1v-28c0-.552-.448-1-1-1zm-43 4.5c0 .103.024.2.03.301-2.609.782-5.303 1.199-8.03 1.199-15.439 0-28-12.561-28-28s12.561-28 28-28 28 12.561 28 28c0 2.935-.471 5.834-1.377 8.629-1.554.849-2.623 2.479-2.623 4.371v9h-11.5c-2.481 0-4.5 2.019-4.5 4.5zm11.5 23.5h-7c-1.378 0-2.5-1.122-2.5-2.5s1.122-2.5 2.5-2.5h7c1.378 0 2.5 1.122 2.5 2.5s-1.122 2.5-2.5 2.5zm0-7h-7c-1.378 0-2.5-1.122-2.5-2.5s1.122-2.5 2.5-2.5h7c1.378 0 2.5 1.122 2.5 2.5s-1.122 2.5-2.5 2.5zm0-7h-7c-1.378 0-2.5-1.122-2.5-2.5s1.122-2.5 2.5-2.5h7c1.378 0 2.5 1.122 2.5 2.5s-1.122 2.5-2.5 2.5zm0-7h-7c-1.127 0-2.071-.755-2.382-1.781-.002-.007 0-.015-.003-.022-.002-.006-.007-.01-.009-.016-.062-.218-.106-.443-.106-.681 0-1.378 1.122-2.5 2.5-2.5h7c1.378 0 2.5 1.122 2.5 2.5s-1.122 2.5-2.5 2.5zm30.5 21h-6v-1c0-.347-.18-.668-.474-.851-.295-.182-.663-.198-.973-.044l-3.789 1.895h-15.526c.48-.716.762-1.575.762-2.5 0-1.421-.675-2.675-1.706-3.5 1.031-.825 1.706-2.079 1.706-3.5s-.675-2.675-1.706-3.5c1.031-.825 1.706-2.079 1.706-3.5s-.675-2.675-1.706-3.5c1.031-.825 1.706-2.079 1.706-3.5 0-.925-.282-1.784-.762-2.5h1.762c.552 0 1-.448 1-1v-10c0-1.654 1.346-3 3-3s3 1.346 3 3v6c0 2.611 2.012 4.761 4.567 4.981l1.726 1.726c.187.188.442.293.707.293h3v19c0 .552.448 1 1 1s1-.448 1-1v-21h6z"/><circle cx="89" cy="69" r="1"/><path d="m43 88c.552 0 1-.448 1-1s-.448-1-1-1h-3c-.552 0-1 .448-1 1s.448 1 1 1z"/><path d="m3 88h5c.446 0 .839-.296.961-.725l1.074-3.759 3.009 9.778c.13.421.518.706.956.706h.034c.451-.015.836-.331.94-.771l3.192-13.569 3.885 11.656c.128.383.475.652.878.681.397.028.784-.188.965-.55l1.724-3.447h10.382c.552 0 1-.448 1-1s-.448-1-1-1h-11c-.379 0-.725.214-.895.553l-.92 1.841-4.236-12.71c-.142-.424-.554-.698-.994-.683-.447.021-.826.334-.928.77l-3.155 13.41-2.916-9.475c-.129-.42-.518-.706-.956-.706-.003 0-.007 0-.01 0-.442.004-.83.3-.951.725l-1.793 6.275h-4.246c-.552 0-1 .448-1 1s.448 1 1 1z"/><circle cx="47" cy="87" r="1"/></svg>